# xmcd
#
# Track frame offsets: 
#        150
#        11592
#        21242
#        36139
#        46939
#        56155
#        65999
#        76396
#        87084
#        98515
#        110337
#        120059
#        134450
#        146385
#        155076
#        168586
#        178861
#        188386
#        197349
#        208037
#        220337
#        231465
#        241365
#        252869
#        262207
#        273673
#        282430
#
# Disc length: 3899 seconds
#
# Revision: 0
# Processed by: cddbd v1.5.2PL0 Copyright (c) Steve Scherf et al.
# Submitted via: ExactAudioCopyFreeDBPlugin 1.0
#
DISCID=8a0f391b
DTITLE=The Isley Brothers - Twist and Shout
DYEAR=2013
DGENRE=Rhythm and Blues
TTITLE0=Twist and Shout
TTITLE1=I Say Love
TTITLE2=Right Now
TTITLE3=Hold on Baby
TTITLE4=Rubber Leg Twist
TTITLE5=The Snake
TTITLE6=You Better Come Home
TTITLE7=Never Leave Me Baby
TTITLE8=Spanish Twist
TTITLE9=Time After Time
TTITLE10=Let’s Twist Again
TTITLE11=Don’t You Feel
TTITLE12=Twistin’ with Linda (bonus track)
TTITLE13=The Wah Watusi (bonus track)
TTITLE14=Ring-A-Ling-A-Ling (Let The Wedding Bells Ring) (bonus track)
TTITLE15=The Drag (bonus track)
TTITLE16=Open Up Your Heart (bonus track)
TTITLE17=I’m Laughing to Keep from Crying (bonus track)
TTITLE18=Everybody’s Gonna Rock and Roll (bonus track)
TTITLE19=Tell Me Who (bonus track)
TTITLE20=What’cha Gonna Do? (bonus track)
TTITLE21=Respectable (bonus track)
TTITLE22=Don’t Be Jealous (bonus track)
TTITLE23=Yes, Indeed (bonus track)
TTITLE24=Surf and Shout (bonus track)
TTITLE25=I’m Gonna Knock on Your Door (bonus track)
TTITLE26=Rockin’ McDonald (bonus track)
EXTD=
EXTT0=
EXTT1=
EXTT2=
EXTT3=
EXTT4=
EXTT5=
EXTT6=
EXTT7=
EXTT8=
EXTT9=
EXTT10=
EXTT11=
EXTT12=
EXTT13=
EXTT14=
EXTT15=
EXTT16=
EXTT17=
EXTT18=
EXTT19=
EXTT20=
EXTT21=
EXTT22=
EXTT23=
EXTT24=
EXTT25=
EXTT26=
PLAYORDER=
